<svg xmlns="http://www.w3.org/2000/svg"  viewBox="0 0 80 80" width="80px" height="80px"><path d="M 33.427734 7 C 32.016982 7 30.576407 7.8332426 29.945312 9.3535156 L 27.355469 15.589844 A 1.000376 1.000376 0 1 0 29.203125 16.357422 L 31.791016 10.119141 C 32.120922 9.3244132 32.759237 9 33.427734 9 C 34.096232 9 34.733006 9.3245797 35.0625 10.119141 L 37.652344 16.357422 C 39.983774 21.975804 44.334411 26.467736 49.810547 28.898438 L 56.625 31.923828 C 58.120612 32.588025 58.120612 34.67174 56.625 35.335938 L 49.589844 38.457031 C 44.251707 40.827097 39.978648 45.158 37.605469 50.591797 A 1.0001 1.0001 0 0 0 37.605469 50.59375 L 35.048828 56.445312 C 34.712838 57.215148 34.085523 57.533203 33.427734 57.533203 C 32.769945 57.533203 32.140677 57.215148 31.804688 56.445312 L 29.248047 50.59375 C 26.875813 45.159728 22.601764 40.827077 17.263672 38.457031 L 10.230469 35.335938 C 8.734856 34.67174 8.7348561 32.588025 10.230469 31.923828 L 17.042969 28.898438 A 1.0001 1.0001 0 1 0 16.232422 27.070312 L 9.4179688 30.095703 C 6.4415811 31.417507 6.4415811 35.840306 9.4179688 37.162109 L 16.453125 40.285156 C 21.327033 42.44911 25.240249 46.4086 27.416016 51.392578 L 29.970703 57.246094 C 30.616713 58.726258 32.037523 59.533203 33.427734 59.533203 C 34.817945 59.533203 36.236804 58.726258 36.882812 57.246094 L 39.4375 51.392578 C 41.614321 46.408375 45.52848 42.449091 50.402344 40.285156 L 57.435547 37.162109 C 60.411934 35.840306 60.411934 31.417507 57.435547 30.095703 L 50.621094 27.070312 C 45.62123 24.851014 41.63857 20.743462 39.5 15.589844 L 36.910156 9.3535156 C 36.27965 7.8330762 34.838487 7 33.427734 7 z M 26.033203 19.107422 L 25.230469 19.509766 L 25.074219 20.390625 L 25.685547 21.044922 L 26.033203 21.107422 L 26.833984 20.705078 L 26.992188 19.824219 L 26.378906 19.169922 L 26.033203 19.107422 z M 23.509766 22.203125 L 22.707031 22.605469 L 22.550781 23.488281 L 23.162109 24.142578 L 23.509766 24.203125 L 24.310547 23.802734 L 24.46875 22.919922 L 23.855469 22.265625 L 23.509766 22.203125 z M 20.472656 24.800781 L 19.671875 25.203125 L 19.513672 26.083984 L 20.125 26.738281 L 20.472656 26.800781 L 21.273438 26.400391 L 21.431641 25.517578 L 20.818359 24.863281 L 20.472656 24.800781 z M 60.191406 47.691406 C 59.262905 47.691406 58.304033 48.256251 57.896484 49.240234 L 57.46875 50.269531 A 1.0001 1.0001 0 1 0 59.316406 51.035156 L 59.744141 50.005859 C 59.850592 49.748843 60.004908 49.691406 60.191406 49.691406 C 60.377905 49.691406 60.534173 49.748846 60.640625 50.005859 L 61.378906 51.785156 C 62.734298 55.054675 65.266956 57.674078 68.458984 59.091797 L 70.546875 60.019531 A 1.0001 1.0001 0 0 0 70.548828 60.019531 C 71.007648 60.223281 71.007648 60.792344 70.548828 60.996094 L 68.333984 61.980469 C 65.222809 63.362613 62.734656 65.886709 61.355469 69.048828 L 60.636719 70.695312 C 60.528711 70.942843 60.374286 71 60.191406 71 C 60.008526 71 59.856008 70.942841 59.748047 70.695312 L 59.029297 69.048828 C 57.650076 65.886633 55.161548 63.363512 52.050781 61.980469 L 49.835938 60.996094 C 49.37843 60.792757 49.378429 60.222868 49.835938 60.019531 L 51.107422 59.455078 A 1.0001 1.0001 0 1 0 50.296875 57.626953 L 49.023438 58.191406 C 47.086945 59.05207 47.086945 61.963555 49.023438 62.824219 L 51.238281 63.808594 C 53.885514 64.98555 56.012533 67.137805 57.195312 69.849609 L 57.914062 71.496094 C 58.332102 72.454563 59.276286 73 60.191406 73 C 61.106526 73 62.050711 72.454563 62.46875 71.496094 L 63.1875 69.849609 A 1.0001 1.0001 0 0 0 63.189453 69.849609 C 64.372265 67.137728 66.49966 64.98445 69.146484 63.808594 L 71.359375 62.824219 C 73.296555 61.963968 73.296555 59.051657 71.359375 58.191406 L 69.269531 57.263672 C 66.55356 56.057391 64.389172 53.824013 63.226562 51.019531 L 62.488281 49.240234 C 62.080733 48.256251 61.119908 47.691406 60.191406 47.691406 z M 56.46875 52.744141 A 1 1 0 0 0 56.46875 54.744141 A 1 1 0 0 0 56.46875 52.744141 z M 53.824219 55.371094 A 1 1 0 0 0 53.824219 57.371094 A 1 1 0 0 0 53.824219 55.371094 z"/></svg>